<svg xmlns="http://www.w3.org/2000/svg" viewBox="0 0 256.48 183.81"><defs><style>.cls-1{isolation:isolate;}.cls-2{fill:#1d1d1b;}</style></defs><g id="Laag_2" data-name="Laag 2"><g id="Laag_3" data-name="Laag 3"><g class="cls-1"><path class="cls-2" d="M127.37,173.51C48.91,134.36,56.25,33.21,113.9,6c.3-.16.64-.29.94-.45h0A66.42,66.42,0,0,1,133.93.08C123.43,0,111.76,0,98.76.05h-.23c-1.36.13-2.69.27-4,.44-96,11.34-118.75,118.4-68.79,165.65a73.84,73.84,0,0,0,25.22,15.61l26.45-.17c-13.2-5.28-22.54-10.81-34.15-24.77,10.41-.05,20.82-.14,31.23-.19,11.82,10.46,21.89,17.49,39.25,23.4,1.29.47,2.67.9,4,1.33,9.45-.08,18.93-.12,28.41-.19A128.89,128.89,0,0,1,127.37,173.51ZM26.26,118.31C17.6,56.86,57.64,25,75.26,14.11c-45.73,37.56-31.87,89.13-26.53,104Z"/><path class="cls-2" d="M237.34,33.89C212.61,5.79,188.7.69,133.93.08,123.43,0,111.76,0,98.76.05h-.23c-1.36.13-2.69.27-4,.44a89.61,89.61,0,0,1,20.33,5.08h0a87.61,87.61,0,0,1,13.18,6.37c58.21,34.46,60.71,126.27-.68,161.57a89.87,89.87,0,0,1-13.65,6.5,104.39,104.39,0,0,1-11.88,3.8c14.12-.1,28.21-.16,42.33-.26C275.43,182,269,77.93,237.34,33.89ZM214.79,143.3C201,163.75,190.31,163.83,169,164c45.57-41.81,41.95-111.31-7.71-148.74l4.38,0c2.91,0,6.79,0,9.71-.07C214.59,16,250.11,82.25,214.79,143.3Z"/></g></g></g></svg>